# xmcd
#
# Track frame offsets:
#	150
#	12790
#	20576
#	28904
#	42375
#	54144
#	68004
#	76847
#	90965
#	104885
#	113988
#	124147
#	137987
#	152152
#	170295
#	184426
#
# Disc length: 2629 seconds
#
# Revision: 0
# Processed by: cddbd v1.5.2PL0 Copyright (c) Steve Scherf et al.
# Submitted via: EasyCDDAExtractor 10.5.1.1
#
DISCID=d30a4310
DTITLE=Bing Crosby - Side By Side - Disc 2
DYEAR=2005
DGENRE=Easy Listening
TTITLE0=Swinging On A Star
TTITLE1=It Had To Be You
TTITLE2=I'll Be Seeing You
TTITLE3=Don't Fence Me In
TTITLE4=Oh, What A Beautiful Morning
TTITLE5=Going My Way
TTITLE6=Pistol Packin' Mama
TTITLE7=Moonlight Becomes You
TTITLE8=Too Marvelous For Words
TTITLE9=The Birth Of The Blues
TTITLE10=The One I Love Belongs To Somebody Else
TTITLE11=I Aint Got Nobody
TTITLE12=San Fernando Valley
TTITLE13=I Promise You
TTITLE14=Temptation
TTITLE15=You're Getting To Be A Habit With Me
EXTD=
EXTT0=
EXTT1=
EXTT2=
EXTT3=
EXTT4=
EXTT5=
EXTT6=
EXTT7=
EXTT8=
EXTT9=
EXTT10=
EXTT11=
EXTT12=
EXTT13=
EXTT14=
EXTT15=
PLAYORDER=
